<svg xmlns="http://www.w3.org/2000/svg" width="780" height="270" font-family="-apple-system,BlinkMacSystemFont,Segoe UI,Helvetica,Arial,sans-serif">
<rect width="780" height="270" fill="white"/>
<line x1="130.0" y1="14" x2="130.0" y2="230" stroke="#eaecef" stroke-width="1"/>
<text x="130.0" y="248" font-size="11" fill="#8b949e" text-anchor="middle">0</text>
<line x1="320.0" y1="14" x2="320.0" y2="230" stroke="#eaecef" stroke-width="1"/>
<text x="320.0" y="248" font-size="11" fill="#8b949e" text-anchor="middle">1,000</text>
<line x1="510.0" y1="14" x2="510.0" y2="230" stroke="#eaecef" stroke-width="1"/>
<text x="510.0" y="248" font-size="11" fill="#8b949e" text-anchor="middle">2,000</text>
<line x1="700.0" y1="14" x2="700.0" y2="230" stroke="#eaecef" stroke-width="1"/>
<text x="700.0" y="248" font-size="11" fill="#8b949e" text-anchor="middle">3,000</text>
<text x="415.0" y="264" font-size="11" fill="#8b949e" text-anchor="middle">installs / second (higher is better)</text>
<text x="118" y="36.4" font-size="13" font-weight="700" fill="#1f2328" text-anchor="end">pypiron</text>
<rect x="130" y="22.0" width="386.4" height="20" rx="2" fill="#6e40c9"/>
<text x="524.4" y="36.4" font-size="12" font-weight="700" fill="#1f2328">2,034/s</text>
<text x="118" y="72.4" font-size="13" font-weight="400" fill="#1f2328" text-anchor="end">bandersnatch</text>
<rect x="130" y="58.0" width="109.1" height="20" rx="2" fill="#6e40c9"/>
<text x="247.1" y="72.4" font-size="12" font-weight="400" fill="#1f2328">574/s</text>
<text x="118" y="108.4" font-size="13" font-weight="400" fill="#1f2328" text-anchor="end">pypiserver</text>
<rect x="130" y="94.0" width="16.1" height="20" rx="2" fill="#6e40c9"/>
<text x="154.1" y="108.4" font-size="12" font-weight="400" fill="#1f2328">85/s</text>
<text x="118" y="144.4" font-size="13" font-weight="400" fill="#1f2328" text-anchor="end">pypicloud</text>
<rect x="130" y="130.0" width="9.0" height="20" rx="2" fill="#6e40c9"/>
<text x="147.0" y="144.4" font-size="12" font-weight="400" fill="#1f2328">47/s</text>
<text x="118" y="180.4" font-size="13" font-weight="400" fill="#1f2328" text-anchor="end">devpi</text>
<rect x="130" y="166.0" width="6.6" height="20" rx="2" fill="#6e40c9"/>
<text x="144.6" y="180.4" font-size="12" font-weight="400" fill="#1f2328">34/s</text>
<text x="118" y="216.4" font-size="13" font-weight="400" fill="#1f2328" text-anchor="end">proxpi</text>
<rect x="130" y="202.0" width="6.0" height="20" rx="2" fill="#6e40c9"/>
<text x="144.0" y="216.4" font-size="12" font-weight="400" fill="#1f2328">32/s</text>
</svg>