<svg xmlns="http://www.w3.org/2000/svg" width="780" height="210" font-family="-apple-system,BlinkMacSystemFont,Segoe UI,Helvetica,Arial,sans-serif">
<rect width="780" height="210" fill="white"/>
<line x1="130.0" y1="14" x2="130.0" y2="170" stroke="#eaecef" stroke-width="1"/>
<text x="130.0" y="188" font-size="11" fill="#8b949e" text-anchor="middle">0</text>
<line x1="308.1" y1="14" x2="308.1" y2="170" stroke="#eaecef" stroke-width="1"/>
<text x="308.1" y="188" font-size="11" fill="#8b949e" text-anchor="middle">1,000</text>
<line x1="486.2" y1="14" x2="486.2" y2="170" stroke="#eaecef" stroke-width="1"/>
<text x="486.2" y="188" font-size="11" fill="#8b949e" text-anchor="middle">2,000</text>
<line x1="664.4" y1="14" x2="664.4" y2="170" stroke="#eaecef" stroke-width="1"/>
<text x="664.4" y="188" font-size="11" fill="#8b949e" text-anchor="middle">3,000</text>
<text x="415.0" y="204" font-size="11" fill="#8b949e" text-anchor="middle">installs / second (higher is better)</text>
<text x="118" y="30.5" font-size="13" font-weight="700" fill="#1f2328" text-anchor="end">pypiron</text>
<rect x="130" y="19.0" width="506.8" height="16" rx="2" fill="#e07b45"/>
<text x="644.8" y="30.5" font-size="12" font-weight="700" fill="#1f2328">2,845/s</text>
<text x="118" y="56.5" font-size="13" font-weight="400" fill="#1f2328" text-anchor="end">bandersnatch</text>
<rect x="130" y="45.0" width="102.3" height="16" rx="2" fill="#e07b45"/>
<text x="240.3" y="56.5" font-size="12" font-weight="400" fill="#1f2328">574/s</text>
<text x="118" y="82.5" font-size="13" font-weight="400" fill="#1f2328" text-anchor="end">pypiserver</text>
<rect x="130" y="71.0" width="15.1" height="16" rx="2" fill="#e07b45"/>
<text x="153.1" y="82.5" font-size="12" font-weight="400" fill="#1f2328">85/s</text>
<text x="118" y="108.5" font-size="13" font-weight="400" fill="#1f2328" text-anchor="end">pypicloud</text>
<rect x="130" y="97.0" width="8.4" height="16" rx="2" fill="#e07b45"/>
<text x="146.4" y="108.5" font-size="12" font-weight="400" fill="#1f2328">47/s</text>
<text x="118" y="134.5" font-size="13" font-weight="400" fill="#1f2328" text-anchor="end">devpi</text>
<rect x="130" y="123.0" width="6.1" height="16" rx="2" fill="#e07b45"/>
<text x="144.1" y="134.5" font-size="12" font-weight="400" fill="#1f2328">35/s</text>
<text x="118" y="160.5" font-size="13" font-weight="400" fill="#1f2328" text-anchor="end">proxpi</text>
<rect x="130" y="149.0" width="5.7" height="16" rx="2" fill="#e07b45"/>
<text x="143.7" y="160.5" font-size="12" font-weight="400" fill="#1f2328">32/s</text>
</svg>