<svg xmlns="http://www.w3.org/2000/svg" width="780" height="210" font-family="-apple-system,BlinkMacSystemFont,Segoe UI,Helvetica,Arial,sans-serif">
<rect width="780" height="210" fill="#1f1813"/>
<line x1="130.0" y1="14" x2="130.0" y2="170" stroke="#352c24" stroke-width="1"/>
<text x="130.0" y="188" font-size="11" fill="#a59a8f" text-anchor="middle">0</text>
<line x1="253.9" y1="14" x2="253.9" y2="170" stroke="#352c24" stroke-width="1"/>
<text x="253.9" y="188" font-size="11" fill="#a59a8f" text-anchor="middle">500</text>
<line x1="377.8" y1="14" x2="377.8" y2="170" stroke="#352c24" stroke-width="1"/>
<text x="377.8" y="188" font-size="11" fill="#a59a8f" text-anchor="middle">1,000</text>
<line x1="501.7" y1="14" x2="501.7" y2="170" stroke="#352c24" stroke-width="1"/>
<text x="501.7" y="188" font-size="11" fill="#a59a8f" text-anchor="middle">1,500</text>
<line x1="625.7" y1="14" x2="625.7" y2="170" stroke="#352c24" stroke-width="1"/>
<text x="625.7" y="188" font-size="11" fill="#a59a8f" text-anchor="middle">2,000</text>
<text x="415.0" y="204" font-size="11" fill="#a59a8f" text-anchor="middle">installs / second (higher is better)</text>
<text x="118" y="30.5" font-size="13" font-weight="700" fill="#ece5dd" text-anchor="end">pypiron</text>
<rect x="130" y="19.0" width="504.0" height="16" rx="2" fill="#e07b45"/>
<text x="642.0" y="30.5" font-size="12" font-weight="700" fill="#ece5dd">2,034/s</text>
<text x="118" y="56.5" font-size="13" font-weight="400" fill="#ece5dd" text-anchor="end">bandersnatch</text>
<rect x="130" y="45.0" width="142.3" height="16" rx="2" fill="#e07b45"/>
<text x="280.3" y="56.5" font-size="12" font-weight="400" fill="#ece5dd">574/s</text>
<text x="118" y="82.5" font-size="13" font-weight="400" fill="#ece5dd" text-anchor="end">pypiserver</text>
<rect x="130" y="71.0" width="21.0" height="16" rx="2" fill="#e07b45"/>
<text x="159.0" y="82.5" font-size="12" font-weight="400" fill="#ece5dd">85/s</text>
<text x="118" y="108.5" font-size="13" font-weight="400" fill="#ece5dd" text-anchor="end">pypicloud</text>
<rect x="130" y="97.0" width="11.7" height="16" rx="2" fill="#e07b45"/>
<text x="149.7" y="108.5" font-size="12" font-weight="400" fill="#ece5dd">47/s</text>
<text x="118" y="134.5" font-size="13" font-weight="400" fill="#ece5dd" text-anchor="end">devpi</text>
<rect x="130" y="123.0" width="8.6" height="16" rx="2" fill="#e07b45"/>
<text x="146.6" y="134.5" font-size="12" font-weight="400" fill="#ece5dd">34/s</text>
<text x="118" y="160.5" font-size="13" font-weight="400" fill="#ece5dd" text-anchor="end">proxpi</text>
<rect x="130" y="149.0" width="7.9" height="16" rx="2" fill="#e07b45"/>
<text x="145.9" y="160.5" font-size="12" font-weight="400" fill="#ece5dd">32/s</text>
</svg>